<svg width="15" height="13" viewBox="0 0 15 13" fill="none" xmlns="http://www.w3.org/2000/svg">
<path d="M9.87516 7.08736C9.87516 8.41541 8.7948 9.49577 7.46674 9.49577C6.13869 9.49577 5.05874 8.41541 5.05874 7.08736C5.05874 5.7593 6.13869 4.67895 7.46674 4.67895C8.7948 4.67895 9.87516 5.75972 9.87516 7.08736ZM14.9335 3.66753V10.508C14.9335 11.4199 14.1941 12.1593 13.2822 12.1593H1.6513C0.739367 12.1593 0 11.4199 0 10.508V3.66753C0 2.7556 0.739367 2.01623 1.6513 2.01623H3.68239V1.44488C3.68239 0.646895 4.32887 0 5.12727 0H9.80622C10.6046 0 11.2511 0.646895 11.2511 1.44488V2.01582H13.2822C14.1941 2.01623 14.9335 2.7556 14.9335 3.66753ZM11.1136 7.08736C11.1136 5.07649 9.47761 3.44047 7.46674 3.44047C5.45629 3.44047 3.82027 5.07649 3.82027 7.08736C3.82027 9.09822 5.45629 10.7342 7.46674 10.7342C9.47761 10.7342 11.1136 9.09822 11.1136 7.08736Z" fill="white"/>
</svg>
